<mxfile host="app.diagrams.net" agent="Mozilla/5.0 (Macintosh; Intel Mac OS X 10.15; rv:141.0) Gecko/20100101 Firefox/141.0" version="28.0.7">
  <diagram name="Page-1" id="Qdo_SYBLGGpn4ifu639h">
    <mxGraphModel dx="2784" dy="760" grid="1" gridSize="10" guides="1" tooltips="1" connect="1" arrows="1" fold="1" page="1" pageScale="1" pageWidth="827" pageHeight="1169" math="0" shadow="0">
      <root>
        <mxCell id="0" />
        <mxCell id="1" parent="0" />
        <mxCell id="HImxJRBcL6gJJ8b0BBrh-1" value="Moi" style="rounded=1;whiteSpace=wrap;html=1;" vertex="1" parent="1">
          <mxGeometry x="270.44000000000005" y="490" width="120" height="60" as="geometry" />
        </mxCell>
        <mxCell id="HImxJRBcL6gJJ8b0BBrh-2" value="Thanya" style="rounded=1;whiteSpace=wrap;html=1;" vertex="1" parent="1">
          <mxGeometry x="410.44000000000005" y="490" width="120" height="60" as="geometry" />
        </mxCell>
        <mxCell id="HImxJRBcL6gJJ8b0BBrh-3" value="Ilyane" style="rounded=1;whiteSpace=wrap;html=1;" vertex="1" parent="1">
          <mxGeometry x="550.44" y="490" width="120" height="60" as="geometry" />
        </mxCell>
        <mxCell id="HImxJRBcL6gJJ8b0BBrh-4" value="Maman (Nabila)" style="whiteSpace=wrap;html=1;rounded=1;" vertex="1" parent="1">
          <mxGeometry x="340.44000000000005" y="370" width="120" height="60" as="geometry" />
        </mxCell>
        <mxCell id="HImxJRBcL6gJJ8b0BBrh-5" value="Papa (Ghanem)" style="whiteSpace=wrap;html=1;rounded=1;" vertex="1" parent="1">
          <mxGeometry x="480.44000000000005" y="370" width="120" height="60" as="geometry" />
        </mxCell>
        <mxCell id="HImxJRBcL6gJJ8b0BBrh-6" value="" style="endArrow=none;html=1;rounded=0;exitX=1;exitY=0.5;exitDx=0;exitDy=0;entryX=0;entryY=0.5;entryDx=0;entryDy=0;" edge="1" parent="1" source="HImxJRBcL6gJJ8b0BBrh-4" target="HImxJRBcL6gJJ8b0BBrh-5">
          <mxGeometry width="50" height="50" relative="1" as="geometry">
            <mxPoint x="450.44000000000005" y="530" as="sourcePoint" />
            <mxPoint x="520.44" y="460" as="targetPoint" />
          </mxGeometry>
        </mxCell>
        <mxCell id="HImxJRBcL6gJJ8b0BBrh-7" value="" style="endArrow=none;html=1;rounded=0;exitX=0.5;exitY=0;exitDx=0;exitDy=0;" edge="1" parent="1" source="HImxJRBcL6gJJ8b0BBrh-2">
          <mxGeometry width="50" height="50" relative="1" as="geometry">
            <mxPoint x="450.44000000000005" y="530" as="sourcePoint" />
            <mxPoint x="470.44000000000005" y="400" as="targetPoint" />
          </mxGeometry>
        </mxCell>
        <mxCell id="HImxJRBcL6gJJ8b0BBrh-8" value="" style="endArrow=none;html=1;rounded=0;" edge="1" parent="1">
          <mxGeometry width="50" height="50" relative="1" as="geometry">
            <mxPoint x="330.44000000000005" y="450" as="sourcePoint" />
            <mxPoint x="610.44" y="450" as="targetPoint" />
          </mxGeometry>
        </mxCell>
        <mxCell id="HImxJRBcL6gJJ8b0BBrh-9" value="" style="endArrow=none;html=1;rounded=0;exitX=0.5;exitY=0;exitDx=0;exitDy=0;" edge="1" parent="1" source="HImxJRBcL6gJJ8b0BBrh-1">
          <mxGeometry width="50" height="50" relative="1" as="geometry">
            <mxPoint x="450.44000000000005" y="530" as="sourcePoint" />
            <mxPoint x="330.44000000000005" y="450" as="targetPoint" />
          </mxGeometry>
        </mxCell>
        <mxCell id="HImxJRBcL6gJJ8b0BBrh-10" value="" style="endArrow=none;html=1;rounded=0;exitX=0.5;exitY=0;exitDx=0;exitDy=0;" edge="1" parent="1">
          <mxGeometry width="50" height="50" relative="1" as="geometry">
            <mxPoint x="609.94" y="490" as="sourcePoint" />
            <mxPoint x="609.94" y="450" as="targetPoint" />
          </mxGeometry>
        </mxCell>
        <mxCell id="HImxJRBcL6gJJ8b0BBrh-11" value="" style="endArrow=none;html=1;rounded=0;exitX=0.5;exitY=0;exitDx=0;exitDy=0;" edge="1" parent="1">
          <mxGeometry width="50" height="50" relative="1" as="geometry">
            <mxPoint x="400.23" y="370" as="sourcePoint" />
            <mxPoint x="400.23" y="350" as="targetPoint" />
          </mxGeometry>
        </mxCell>
        <mxCell id="HImxJRBcL6gJJ8b0BBrh-12" value="..." style="whiteSpace=wrap;html=1;rounded=1;" vertex="1" parent="1">
          <mxGeometry x="130.00000000000006" y="490" width="120" height="60" as="geometry" />
        </mxCell>
        <mxCell id="HImxJRBcL6gJJ8b0BBrh-13" value="" style="endArrow=none;html=1;rounded=0;exitX=1;exitY=0.5;exitDx=0;exitDy=0;entryX=0;entryY=0.5;entryDx=0;entryDy=0;" edge="1" parent="1" source="HImxJRBcL6gJJ8b0BBrh-12">
          <mxGeometry width="50" height="50" relative="1" as="geometry">
            <mxPoint x="240" y="650" as="sourcePoint" />
            <mxPoint x="270.4399999999996" y="520" as="targetPoint" />
          </mxGeometry>
        </mxCell>
        <mxCell id="HImxJRBcL6gJJ8b0BBrh-14" value="Naila" style="rounded=1;whiteSpace=wrap;html=1;" vertex="1" parent="1">
          <mxGeometry x="690" y="490" width="120" height="60" as="geometry" />
        </mxCell>
        <mxCell id="HImxJRBcL6gJJ8b0BBrh-16" value="Nino" style="rounded=1;whiteSpace=wrap;html=1;" vertex="1" parent="1">
          <mxGeometry x="830" y="490" width="120" height="60" as="geometry" />
        </mxCell>
        <mxCell id="HImxJRBcL6gJJ8b0BBrh-17" value="Tata Samira" style="whiteSpace=wrap;html=1;rounded=1;" vertex="1" parent="1">
          <mxGeometry x="690" y="370" width="120" height="60" as="geometry" />
        </mxCell>
        <mxCell id="HImxJRBcL6gJJ8b0BBrh-18" value="Khalo Samir" style="whiteSpace=wrap;html=1;rounded=1;" vertex="1" parent="1">
          <mxGeometry x="830" y="370" width="120" height="60" as="geometry" />
        </mxCell>
        <mxCell id="HImxJRBcL6gJJ8b0BBrh-19" value="" style="endArrow=none;html=1;rounded=0;exitX=1;exitY=0.5;exitDx=0;exitDy=0;entryX=0;entryY=0.5;entryDx=0;entryDy=0;" edge="1" source="HImxJRBcL6gJJ8b0BBrh-17" target="HImxJRBcL6gJJ8b0BBrh-18" parent="1">
          <mxGeometry width="50" height="50" relative="1" as="geometry">
            <mxPoint x="800" y="530" as="sourcePoint" />
            <mxPoint x="870" y="460" as="targetPoint" />
          </mxGeometry>
        </mxCell>
        <mxCell id="HImxJRBcL6gJJ8b0BBrh-20" value="" style="endArrow=none;html=1;rounded=0;" edge="1" parent="1">
          <mxGeometry width="50" height="50" relative="1" as="geometry">
            <mxPoint x="820" y="450" as="sourcePoint" />
            <mxPoint x="820" y="400" as="targetPoint" />
          </mxGeometry>
        </mxCell>
        <mxCell id="HImxJRBcL6gJJ8b0BBrh-21" value="" style="endArrow=none;html=1;rounded=0;" edge="1" parent="1">
          <mxGeometry width="50" height="50" relative="1" as="geometry">
            <mxPoint x="750" y="450" as="sourcePoint" />
            <mxPoint x="890" y="450" as="targetPoint" />
          </mxGeometry>
        </mxCell>
        <mxCell id="HImxJRBcL6gJJ8b0BBrh-22" value="" style="endArrow=none;html=1;rounded=0;exitX=0.5;exitY=0;exitDx=0;exitDy=0;" edge="1" source="HImxJRBcL6gJJ8b0BBrh-14" parent="1">
          <mxGeometry width="50" height="50" relative="1" as="geometry">
            <mxPoint x="800" y="530" as="sourcePoint" />
            <mxPoint x="750" y="450" as="targetPoint" />
          </mxGeometry>
        </mxCell>
        <mxCell id="HImxJRBcL6gJJ8b0BBrh-23" value="" style="endArrow=none;html=1;rounded=0;exitX=0.5;exitY=0;exitDx=0;exitDy=0;" edge="1" parent="1">
          <mxGeometry width="50" height="50" relative="1" as="geometry">
            <mxPoint x="889.5699999999999" y="490" as="sourcePoint" />
            <mxPoint x="889.5699999999999" y="450" as="targetPoint" />
          </mxGeometry>
        </mxCell>
        <mxCell id="HImxJRBcL6gJJ8b0BBrh-24" value="" style="endArrow=none;html=1;rounded=0;exitX=0.5;exitY=0;exitDx=0;exitDy=0;" edge="1" parent="1">
          <mxGeometry width="50" height="50" relative="1" as="geometry">
            <mxPoint x="889.5699999999999" y="370" as="sourcePoint" />
            <mxPoint x="889.5699999999999" y="350" as="targetPoint" />
          </mxGeometry>
        </mxCell>
        <mxCell id="HImxJRBcL6gJJ8b0BBrh-25" value="Loubna" style="rounded=1;whiteSpace=wrap;html=1;" vertex="1" parent="1">
          <mxGeometry x="1110.5" y="490" width="120" height="60" as="geometry" />
        </mxCell>
        <mxCell id="HImxJRBcL6gJJ8b0BBrh-26" value="Karim" style="rounded=1;whiteSpace=wrap;html=1;" vertex="1" parent="1">
          <mxGeometry x="1250.5" y="490" width="120" height="60" as="geometry" />
        </mxCell>
        <mxCell id="HImxJRBcL6gJJ8b0BBrh-27" value="Tata Nora" style="whiteSpace=wrap;html=1;rounded=1;" vertex="1" parent="1">
          <mxGeometry x="1110.5" y="370" width="120" height="60" as="geometry" />
        </mxCell>
        <mxCell id="HImxJRBcL6gJJ8b0BBrh-28" value="Tonton Rachid" style="whiteSpace=wrap;html=1;rounded=1;" vertex="1" parent="1">
          <mxGeometry x="1250.5" y="370" width="120" height="60" as="geometry" />
        </mxCell>
        <mxCell id="HImxJRBcL6gJJ8b0BBrh-29" value="" style="endArrow=none;html=1;rounded=0;exitX=1;exitY=0.5;exitDx=0;exitDy=0;entryX=0;entryY=0.5;entryDx=0;entryDy=0;" edge="1" source="HImxJRBcL6gJJ8b0BBrh-27" target="HImxJRBcL6gJJ8b0BBrh-28" parent="1">
          <mxGeometry width="50" height="50" relative="1" as="geometry">
            <mxPoint x="1220.5" y="530" as="sourcePoint" />
            <mxPoint x="1290.5" y="460" as="targetPoint" />
          </mxGeometry>
        </mxCell>
        <mxCell id="HImxJRBcL6gJJ8b0BBrh-30" value="" style="endArrow=none;html=1;rounded=0;" edge="1" parent="1">
          <mxGeometry width="50" height="50" relative="1" as="geometry">
            <mxPoint x="1240.5" y="450" as="sourcePoint" />
            <mxPoint x="1240.5" y="400" as="targetPoint" />
          </mxGeometry>
        </mxCell>
        <mxCell id="HImxJRBcL6gJJ8b0BBrh-31" value="" style="endArrow=none;html=1;rounded=0;" edge="1" parent="1">
          <mxGeometry width="50" height="50" relative="1" as="geometry">
            <mxPoint x="1170.5" y="450" as="sourcePoint" />
            <mxPoint x="1310.5" y="450" as="targetPoint" />
          </mxGeometry>
        </mxCell>
        <mxCell id="HImxJRBcL6gJJ8b0BBrh-32" value="" style="endArrow=none;html=1;rounded=0;exitX=0.5;exitY=0;exitDx=0;exitDy=0;" edge="1" source="HImxJRBcL6gJJ8b0BBrh-25" parent="1">
          <mxGeometry width="50" height="50" relative="1" as="geometry">
            <mxPoint x="1220.5" y="530" as="sourcePoint" />
            <mxPoint x="1170.5" y="450" as="targetPoint" />
          </mxGeometry>
        </mxCell>
        <mxCell id="HImxJRBcL6gJJ8b0BBrh-33" value="" style="endArrow=none;html=1;rounded=0;exitX=0.5;exitY=0;exitDx=0;exitDy=0;" edge="1" parent="1">
          <mxGeometry width="50" height="50" relative="1" as="geometry">
            <mxPoint x="1310.07" y="490" as="sourcePoint" />
            <mxPoint x="1310.07" y="450" as="targetPoint" />
          </mxGeometry>
        </mxCell>
        <mxCell id="HImxJRBcL6gJJ8b0BBrh-34" value="" style="endArrow=none;html=1;rounded=0;exitX=0.5;exitY=0;exitDx=0;exitDy=0;" edge="1" parent="1">
          <mxGeometry width="50" height="50" relative="1" as="geometry">
            <mxPoint x="1170.29" y="370" as="sourcePoint" />
            <mxPoint x="1170.29" y="350" as="targetPoint" />
          </mxGeometry>
        </mxCell>
        <mxCell id="HImxJRBcL6gJJ8b0BBrh-35" value="???" style="rounded=1;whiteSpace=wrap;html=1;" vertex="1" parent="1">
          <mxGeometry x="970" y="490" width="120" height="60" as="geometry" />
        </mxCell>
        <mxCell id="HImxJRBcL6gJJ8b0BBrh-36" value="Yacine" style="rounded=1;whiteSpace=wrap;html=1;" vertex="1" parent="1">
          <mxGeometry x="1390" y="490" width="120" height="60" as="geometry" />
        </mxCell>
        <mxCell id="HImxJRBcL6gJJ8b0BBrh-37" value="Rym" style="rounded=1;whiteSpace=wrap;html=1;" vertex="1" parent="1">
          <mxGeometry x="1530" y="490" width="120" height="60" as="geometry" />
        </mxCell>
        <mxCell id="HImxJRBcL6gJJ8b0BBrh-38" value="Tata Meriem" style="whiteSpace=wrap;html=1;rounded=1;" vertex="1" parent="1">
          <mxGeometry x="1390" y="370" width="120" height="60" as="geometry" />
        </mxCell>
        <mxCell id="HImxJRBcL6gJJ8b0BBrh-39" value="Khalo Ali" style="whiteSpace=wrap;html=1;rounded=1;" vertex="1" parent="1">
          <mxGeometry x="1530" y="370" width="120" height="60" as="geometry" />
        </mxCell>
        <mxCell id="HImxJRBcL6gJJ8b0BBrh-40" value="" style="endArrow=none;html=1;rounded=0;exitX=1;exitY=0.5;exitDx=0;exitDy=0;entryX=0;entryY=0.5;entryDx=0;entryDy=0;" edge="1" source="HImxJRBcL6gJJ8b0BBrh-38" target="HImxJRBcL6gJJ8b0BBrh-39" parent="1">
          <mxGeometry width="50" height="50" relative="1" as="geometry">
            <mxPoint x="1500" y="530" as="sourcePoint" />
            <mxPoint x="1570" y="460" as="targetPoint" />
          </mxGeometry>
        </mxCell>
        <mxCell id="HImxJRBcL6gJJ8b0BBrh-41" value="" style="endArrow=none;html=1;rounded=0;" edge="1" parent="1">
          <mxGeometry width="50" height="50" relative="1" as="geometry">
            <mxPoint x="1520" y="450" as="sourcePoint" />
            <mxPoint x="1520" y="400" as="targetPoint" />
          </mxGeometry>
        </mxCell>
        <mxCell id="HImxJRBcL6gJJ8b0BBrh-42" value="" style="endArrow=none;html=1;rounded=0;" edge="1" parent="1">
          <mxGeometry width="50" height="50" relative="1" as="geometry">
            <mxPoint x="1450" y="450" as="sourcePoint" />
            <mxPoint x="1590" y="450" as="targetPoint" />
          </mxGeometry>
        </mxCell>
        <mxCell id="HImxJRBcL6gJJ8b0BBrh-43" value="" style="endArrow=none;html=1;rounded=0;exitX=0.5;exitY=0;exitDx=0;exitDy=0;" edge="1" source="HImxJRBcL6gJJ8b0BBrh-36" parent="1">
          <mxGeometry width="50" height="50" relative="1" as="geometry">
            <mxPoint x="1500" y="530" as="sourcePoint" />
            <mxPoint x="1450" y="450" as="targetPoint" />
          </mxGeometry>
        </mxCell>
        <mxCell id="HImxJRBcL6gJJ8b0BBrh-44" value="" style="endArrow=none;html=1;rounded=0;exitX=0.5;exitY=0;exitDx=0;exitDy=0;" edge="1" parent="1">
          <mxGeometry width="50" height="50" relative="1" as="geometry">
            <mxPoint x="1589.57" y="490" as="sourcePoint" />
            <mxPoint x="1589.57" y="450" as="targetPoint" />
          </mxGeometry>
        </mxCell>
        <mxCell id="HImxJRBcL6gJJ8b0BBrh-45" value="" style="endArrow=none;html=1;rounded=0;exitX=0.5;exitY=0;exitDx=0;exitDy=0;" edge="1" parent="1">
          <mxGeometry width="50" height="50" relative="1" as="geometry">
            <mxPoint x="1589.57" y="370" as="sourcePoint" />
            <mxPoint x="1589.57" y="350" as="targetPoint" />
          </mxGeometry>
        </mxCell>
        <mxCell id="HImxJRBcL6gJJ8b0BBrh-57" value="Maissan" style="rounded=1;whiteSpace=wrap;html=1;" vertex="1" parent="1">
          <mxGeometry x="-429.55999999999995" y="490" width="120" height="60" as="geometry" />
        </mxCell>
        <mxCell id="HImxJRBcL6gJJ8b0BBrh-58" value="Marouen" style="rounded=1;whiteSpace=wrap;html=1;" vertex="1" parent="1">
          <mxGeometry x="-149.55999999999995" y="490" width="120" height="60" as="geometry" />
        </mxCell>
        <mxCell id="HImxJRBcL6gJJ8b0BBrh-59" value="Selma" style="rounded=1;whiteSpace=wrap;html=1;" vertex="1" parent="1">
          <mxGeometry x="-9.559999999999945" y="490" width="120" height="60" as="geometry" />
        </mxCell>
        <mxCell id="HImxJRBcL6gJJ8b0BBrh-60" value="Khalo Nabil" style="whiteSpace=wrap;html=1;rounded=1;" vertex="1" parent="1">
          <mxGeometry x="-289.99999999999994" y="370" width="120" height="60" as="geometry" />
        </mxCell>
        <mxCell id="HImxJRBcL6gJJ8b0BBrh-61" value="Tata Mzora" style="whiteSpace=wrap;html=1;rounded=1;" vertex="1" parent="1">
          <mxGeometry x="-79.55999999999995" y="370" width="120" height="60" as="geometry" />
        </mxCell>
        <mxCell id="HImxJRBcL6gJJ8b0BBrh-62" value="" style="endArrow=none;html=1;rounded=0;exitX=1;exitY=0.5;exitDx=0;exitDy=0;entryX=0;entryY=0.5;entryDx=0;entryDy=0;" edge="1" source="HImxJRBcL6gJJ8b0BBrh-60" target="HImxJRBcL6gJJ8b0BBrh-61" parent="1">
          <mxGeometry width="50" height="50" relative="1" as="geometry">
            <mxPoint x="-109.55999999999995" y="530" as="sourcePoint" />
            <mxPoint x="-39.559999999999945" y="460" as="targetPoint" />
          </mxGeometry>
        </mxCell>
        <mxCell id="HImxJRBcL6gJJ8b0BBrh-63" value="" style="endArrow=none;html=1;rounded=0;exitX=0.5;exitY=0;exitDx=0;exitDy=0;" edge="1" source="HImxJRBcL6gJJ8b0BBrh-58" parent="1">
          <mxGeometry width="50" height="50" relative="1" as="geometry">
            <mxPoint x="-109.55999999999995" y="530" as="sourcePoint" />
            <mxPoint x="-89.55999999999995" y="400" as="targetPoint" />
          </mxGeometry>
        </mxCell>
        <mxCell id="HImxJRBcL6gJJ8b0BBrh-64" value="" style="endArrow=none;html=1;rounded=0;" edge="1" parent="1">
          <mxGeometry width="50" height="50" relative="1" as="geometry">
            <mxPoint x="-90" y="450" as="sourcePoint" />
            <mxPoint x="50.440000000000055" y="450" as="targetPoint" />
          </mxGeometry>
        </mxCell>
        <mxCell id="HImxJRBcL6gJJ8b0BBrh-65" value="" style="endArrow=none;html=1;rounded=0;exitX=0.5;exitY=0;exitDx=0;exitDy=0;" edge="1" source="HImxJRBcL6gJJ8b0BBrh-57" parent="1">
          <mxGeometry width="50" height="50" relative="1" as="geometry">
            <mxPoint x="-249.55999999999995" y="530" as="sourcePoint" />
            <mxPoint x="-369.55999999999995" y="450" as="targetPoint" />
          </mxGeometry>
        </mxCell>
        <mxCell id="HImxJRBcL6gJJ8b0BBrh-66" value="" style="endArrow=none;html=1;rounded=0;exitX=0.5;exitY=0;exitDx=0;exitDy=0;" edge="1" parent="1">
          <mxGeometry width="50" height="50" relative="1" as="geometry">
            <mxPoint x="49.940000000000055" y="490" as="sourcePoint" />
            <mxPoint x="49.940000000000055" y="450" as="targetPoint" />
          </mxGeometry>
        </mxCell>
        <mxCell id="HImxJRBcL6gJJ8b0BBrh-67" value="" style="endArrow=none;html=1;rounded=0;exitX=0.5;exitY=0;exitDx=0;exitDy=0;" edge="1" parent="1">
          <mxGeometry width="50" height="50" relative="1" as="geometry">
            <mxPoint x="-229.76999999999998" y="370" as="sourcePoint" />
            <mxPoint x="-229.76999999999998" y="350" as="targetPoint" />
          </mxGeometry>
        </mxCell>
        <mxCell id="HImxJRBcL6gJJ8b0BBrh-68" value="Anaïs" style="whiteSpace=wrap;html=1;rounded=1;" vertex="1" parent="1">
          <mxGeometry x="-570" y="490" width="120" height="60" as="geometry" />
        </mxCell>
        <mxCell id="HImxJRBcL6gJJ8b0BBrh-70" value="Hadger" style="rounded=1;whiteSpace=wrap;html=1;" vertex="1" parent="1">
          <mxGeometry x="-990" y="490" width="120" height="60" as="geometry" />
        </mxCell>
        <mxCell id="HImxJRBcL6gJJ8b0BBrh-71" value="Bouchra" style="rounded=1;whiteSpace=wrap;html=1;" vertex="1" parent="1">
          <mxGeometry x="-850" y="490" width="120" height="60" as="geometry" />
        </mxCell>
        <mxCell id="HImxJRBcL6gJJ8b0BBrh-72" value="Assila" style="rounded=1;whiteSpace=wrap;html=1;" vertex="1" parent="1">
          <mxGeometry x="-710" y="490" width="120" height="60" as="geometry" />
        </mxCell>
        <mxCell id="HImxJRBcL6gJJ8b0BBrh-73" value="Tata Habiba" style="whiteSpace=wrap;html=1;rounded=1;" vertex="1" parent="1">
          <mxGeometry x="-920" y="370" width="120" height="60" as="geometry" />
        </mxCell>
        <mxCell id="HImxJRBcL6gJJ8b0BBrh-74" value="Khalo Amin" style="whiteSpace=wrap;html=1;rounded=1;" vertex="1" parent="1">
          <mxGeometry x="-780" y="370" width="120" height="60" as="geometry" />
        </mxCell>
        <mxCell id="HImxJRBcL6gJJ8b0BBrh-75" value="" style="endArrow=none;html=1;rounded=0;exitX=1;exitY=0.5;exitDx=0;exitDy=0;entryX=0;entryY=0.5;entryDx=0;entryDy=0;" edge="1" source="HImxJRBcL6gJJ8b0BBrh-73" target="HImxJRBcL6gJJ8b0BBrh-74" parent="1">
          <mxGeometry width="50" height="50" relative="1" as="geometry">
            <mxPoint x="-810" y="530" as="sourcePoint" />
            <mxPoint x="-740" y="460" as="targetPoint" />
          </mxGeometry>
        </mxCell>
        <mxCell id="HImxJRBcL6gJJ8b0BBrh-76" value="" style="endArrow=none;html=1;rounded=0;exitX=0.5;exitY=0;exitDx=0;exitDy=0;" edge="1" source="HImxJRBcL6gJJ8b0BBrh-71" parent="1">
          <mxGeometry width="50" height="50" relative="1" as="geometry">
            <mxPoint x="-810" y="530" as="sourcePoint" />
            <mxPoint x="-790" y="400" as="targetPoint" />
          </mxGeometry>
        </mxCell>
        <mxCell id="HImxJRBcL6gJJ8b0BBrh-77" value="" style="endArrow=none;html=1;rounded=0;" edge="1" parent="1">
          <mxGeometry width="50" height="50" relative="1" as="geometry">
            <mxPoint x="-930" y="450" as="sourcePoint" />
            <mxPoint x="-650" y="450" as="targetPoint" />
          </mxGeometry>
        </mxCell>
        <mxCell id="HImxJRBcL6gJJ8b0BBrh-78" value="" style="endArrow=none;html=1;rounded=0;exitX=0.5;exitY=0;exitDx=0;exitDy=0;" edge="1" source="HImxJRBcL6gJJ8b0BBrh-70" parent="1">
          <mxGeometry width="50" height="50" relative="1" as="geometry">
            <mxPoint x="-810" y="530" as="sourcePoint" />
            <mxPoint x="-930" y="450" as="targetPoint" />
          </mxGeometry>
        </mxCell>
        <mxCell id="HImxJRBcL6gJJ8b0BBrh-79" value="" style="endArrow=none;html=1;rounded=0;exitX=0.5;exitY=0;exitDx=0;exitDy=0;" edge="1" parent="1">
          <mxGeometry width="50" height="50" relative="1" as="geometry">
            <mxPoint x="-650.5" y="490" as="sourcePoint" />
            <mxPoint x="-650.5" y="450" as="targetPoint" />
          </mxGeometry>
        </mxCell>
        <mxCell id="HImxJRBcL6gJJ8b0BBrh-80" value="" style="endArrow=none;html=1;rounded=0;exitX=0.5;exitY=0;exitDx=0;exitDy=0;" edge="1" parent="1">
          <mxGeometry width="50" height="50" relative="1" as="geometry">
            <mxPoint x="-720.4300000000001" y="370" as="sourcePoint" />
            <mxPoint x="-720.4300000000001" y="350" as="targetPoint" />
          </mxGeometry>
        </mxCell>
        <mxCell id="HImxJRBcL6gJJ8b0BBrh-81" value="Maëlys" style="rounded=1;whiteSpace=wrap;html=1;" vertex="1" parent="1">
          <mxGeometry x="-1270" y="490" width="120" height="60" as="geometry" />
        </mxCell>
        <mxCell id="HImxJRBcL6gJJ8b0BBrh-82" value="Maïass" style="rounded=1;whiteSpace=wrap;html=1;" vertex="1" parent="1">
          <mxGeometry x="-1130" y="490" width="120" height="60" as="geometry" />
        </mxCell>
        <mxCell id="HImxJRBcL6gJJ8b0BBrh-83" value="Nadjet" style="whiteSpace=wrap;html=1;rounded=1;" vertex="1" parent="1">
          <mxGeometry x="-1270" y="370" width="120" height="60" as="geometry" />
        </mxCell>
        <mxCell id="HImxJRBcL6gJJ8b0BBrh-84" value="(Khalo) Ahmed" style="whiteSpace=wrap;html=1;rounded=1;" vertex="1" parent="1">
          <mxGeometry x="-1130" y="370" width="120" height="60" as="geometry" />
        </mxCell>
        <mxCell id="HImxJRBcL6gJJ8b0BBrh-85" value="" style="endArrow=none;html=1;rounded=0;exitX=1;exitY=0.5;exitDx=0;exitDy=0;entryX=0;entryY=0.5;entryDx=0;entryDy=0;" edge="1" source="HImxJRBcL6gJJ8b0BBrh-83" target="HImxJRBcL6gJJ8b0BBrh-84" parent="1">
          <mxGeometry width="50" height="50" relative="1" as="geometry">
            <mxPoint x="-1160" y="530" as="sourcePoint" />
            <mxPoint x="-1090" y="460" as="targetPoint" />
          </mxGeometry>
        </mxCell>
        <mxCell id="HImxJRBcL6gJJ8b0BBrh-86" value="" style="endArrow=none;html=1;rounded=0;" edge="1" parent="1">
          <mxGeometry width="50" height="50" relative="1" as="geometry">
            <mxPoint x="-1140" y="450" as="sourcePoint" />
            <mxPoint x="-1140" y="400" as="targetPoint" />
          </mxGeometry>
        </mxCell>
        <mxCell id="HImxJRBcL6gJJ8b0BBrh-87" value="" style="endArrow=none;html=1;rounded=0;" edge="1" parent="1">
          <mxGeometry width="50" height="50" relative="1" as="geometry">
            <mxPoint x="-1210" y="450" as="sourcePoint" />
            <mxPoint x="-1070" y="450" as="targetPoint" />
          </mxGeometry>
        </mxCell>
        <mxCell id="HImxJRBcL6gJJ8b0BBrh-88" value="" style="endArrow=none;html=1;rounded=0;exitX=0.5;exitY=0;exitDx=0;exitDy=0;" edge="1" source="HImxJRBcL6gJJ8b0BBrh-81" parent="1">
          <mxGeometry width="50" height="50" relative="1" as="geometry">
            <mxPoint x="-1160" y="530" as="sourcePoint" />
            <mxPoint x="-1210" y="450" as="targetPoint" />
          </mxGeometry>
        </mxCell>
        <mxCell id="HImxJRBcL6gJJ8b0BBrh-89" value="" style="endArrow=none;html=1;rounded=0;exitX=0.5;exitY=0;exitDx=0;exitDy=0;" edge="1" parent="1">
          <mxGeometry width="50" height="50" relative="1" as="geometry">
            <mxPoint x="-1070.43" y="490" as="sourcePoint" />
            <mxPoint x="-1070.43" y="450" as="targetPoint" />
          </mxGeometry>
        </mxCell>
        <mxCell id="HImxJRBcL6gJJ8b0BBrh-90" value="" style="endArrow=none;html=1;rounded=0;exitX=0.5;exitY=0;exitDx=0;exitDy=0;" edge="1" parent="1">
          <mxGeometry width="50" height="50" relative="1" as="geometry">
            <mxPoint x="-1070.43" y="370" as="sourcePoint" />
            <mxPoint x="-1070.43" y="350" as="targetPoint" />
          </mxGeometry>
        </mxCell>
        <mxCell id="HImxJRBcL6gJJ8b0BBrh-91" value="???" style="whiteSpace=wrap;html=1;rounded=1;" vertex="1" parent="1">
          <mxGeometry x="-499.55999999999995" y="370" width="120" height="60" as="geometry" />
        </mxCell>
        <mxCell id="HImxJRBcL6gJJ8b0BBrh-92" value="" style="endArrow=none;html=1;rounded=0;exitX=1;exitY=0.5;exitDx=0;exitDy=0;entryX=0;entryY=0.5;entryDx=0;entryDy=0;" edge="1" target="HImxJRBcL6gJJ8b0BBrh-60" parent="1">
          <mxGeometry width="50" height="50" relative="1" as="geometry">
            <mxPoint x="-380" y="400" as="sourcePoint" />
            <mxPoint x="-359.55999999999995" y="400" as="targetPoint" />
          </mxGeometry>
        </mxCell>
        <mxCell id="HImxJRBcL6gJJ8b0BBrh-93" value="" style="endArrow=none;html=1;rounded=0;exitX=0.5;exitY=0;exitDx=0;exitDy=0;" edge="1" parent="1">
          <mxGeometry width="50" height="50" relative="1" as="geometry">
            <mxPoint x="-370" y="490" as="sourcePoint" />
            <mxPoint x="-369.55999999999995" y="400" as="targetPoint" />
          </mxGeometry>
        </mxCell>
        <mxCell id="HImxJRBcL6gJJ8b0BBrh-94" value="" style="endArrow=none;html=1;rounded=0;" edge="1" parent="1">
          <mxGeometry width="50" height="50" relative="1" as="geometry">
            <mxPoint x="-509.78" y="450" as="sourcePoint" />
            <mxPoint x="-369.3399999999999" y="450" as="targetPoint" />
          </mxGeometry>
        </mxCell>
        <mxCell id="HImxJRBcL6gJJ8b0BBrh-95" value="" style="endArrow=none;html=1;rounded=0;exitX=0.5;exitY=0;exitDx=0;exitDy=0;" edge="1" parent="1">
          <mxGeometry width="50" height="50" relative="1" as="geometry">
            <mxPoint x="-510.42999999999995" y="490" as="sourcePoint" />
            <mxPoint x="-510.42999999999995" y="450" as="targetPoint" />
          </mxGeometry>
        </mxCell>
        <mxCell id="HImxJRBcL6gJJ8b0BBrh-96" value="" style="endArrow=none;html=1;rounded=0;exitX=1;exitY=0.5;exitDx=0;exitDy=0;entryX=0;entryY=0.5;entryDx=0;entryDy=0;" edge="1" parent="1">
          <mxGeometry width="50" height="50" relative="1" as="geometry">
            <mxPoint x="1090" y="520" as="sourcePoint" />
            <mxPoint x="1110" y="520" as="targetPoint" />
          </mxGeometry>
        </mxCell>
        <mxCell id="HImxJRBcL6gJJ8b0BBrh-97" value="" style="endArrow=none;html=1;rounded=0;exitX=0.5;exitY=0;exitDx=0;exitDy=0;" edge="1" parent="1">
          <mxGeometry width="50" height="50" relative="1" as="geometry">
            <mxPoint x="1100" y="610" as="sourcePoint" />
            <mxPoint x="1100.44" y="520" as="targetPoint" />
          </mxGeometry>
        </mxCell>
        <mxCell id="HImxJRBcL6gJJ8b0BBrh-98" value="Melek" style="rounded=1;whiteSpace=wrap;html=1;" vertex="1" parent="1">
          <mxGeometry x="1040" y="610" width="120" height="60" as="geometry" />
        </mxCell>
        <mxCell id="HImxJRBcL6gJJ8b0BBrh-99" value="???" style="whiteSpace=wrap;html=1;rounded=1;" vertex="1" parent="1">
          <mxGeometry x="-289.99999999999994" y="490" width="120" height="60" as="geometry" />
        </mxCell>
        <mxCell id="HImxJRBcL6gJJ8b0BBrh-101" value="" style="endArrow=none;html=1;rounded=0;exitX=1;exitY=0.5;exitDx=0;exitDy=0;entryX=0;entryY=0.5;entryDx=0;entryDy=0;" edge="1" parent="1" source="HImxJRBcL6gJJ8b0BBrh-99" target="HImxJRBcL6gJJ8b0BBrh-58">
          <mxGeometry width="50" height="50" relative="1" as="geometry">
            <mxPoint x="-790" y="410" as="sourcePoint" />
            <mxPoint x="-770" y="410" as="targetPoint" />
          </mxGeometry>
        </mxCell>
        <mxCell id="HImxJRBcL6gJJ8b0BBrh-102" value="" style="endArrow=none;html=1;rounded=0;exitX=0.5;exitY=0;exitDx=0;exitDy=0;" edge="1" parent="1">
          <mxGeometry width="50" height="50" relative="1" as="geometry">
            <mxPoint x="-160.44" y="610" as="sourcePoint" />
            <mxPoint x="-159.99999999999994" y="520" as="targetPoint" />
          </mxGeometry>
        </mxCell>
        <mxCell id="HImxJRBcL6gJJ8b0BBrh-103" value="Alicia" style="rounded=1;whiteSpace=wrap;html=1;" vertex="1" parent="1">
          <mxGeometry x="-219.99999999999994" y="610" width="120" height="60" as="geometry" />
        </mxCell>
        <mxCell id="HImxJRBcL6gJJ8b0BBrh-104" value="" style="endArrow=none;html=1;rounded=0;" edge="1" parent="1">
          <mxGeometry width="50" height="50" relative="1" as="geometry">
            <mxPoint x="-1070" y="350" as="sourcePoint" />
            <mxPoint x="1590" y="350" as="targetPoint" />
          </mxGeometry>
        </mxCell>
        <mxCell id="HImxJRBcL6gJJ8b0BBrh-105" value="Mima (Zahia)" style="whiteSpace=wrap;html=1;rounded=1;strokeColor=light-dark(#000000,#FF0000);" vertex="1" parent="1">
          <mxGeometry x="70" y="270" width="120" height="60" as="geometry" />
        </mxCell>
        <mxCell id="HImxJRBcL6gJJ8b0BBrh-106" value="Papasido (Mohamed)" style="whiteSpace=wrap;html=1;rounded=1;" vertex="1" parent="1">
          <mxGeometry x="210" y="270" width="120" height="60" as="geometry" />
        </mxCell>
        <mxCell id="HImxJRBcL6gJJ8b0BBrh-107" value="" style="endArrow=none;html=1;rounded=0;exitX=1;exitY=0.5;exitDx=0;exitDy=0;entryX=0;entryY=0.5;entryDx=0;entryDy=0;" edge="1" source="HImxJRBcL6gJJ8b0BBrh-105" target="HImxJRBcL6gJJ8b0BBrh-106" parent="1">
          <mxGeometry width="50" height="50" relative="1" as="geometry">
            <mxPoint x="180" y="430" as="sourcePoint" />
            <mxPoint x="250" y="360" as="targetPoint" />
          </mxGeometry>
        </mxCell>
        <mxCell id="HImxJRBcL6gJJ8b0BBrh-108" value="" style="endArrow=none;html=1;rounded=0;" edge="1" parent="1">
          <mxGeometry width="50" height="50" relative="1" as="geometry">
            <mxPoint x="200" y="350" as="sourcePoint" />
            <mxPoint x="200" y="300" as="targetPoint" />
          </mxGeometry>
        </mxCell>
      </root>
    </mxGraphModel>
  </diagram>
</mxfile>
